<mxfile host="app.diagrams.net" modified="2023-08-03T12:03:27.792Z" agent="Mozilla/5.0 (Windows NT 10.0; Win64; x64) AppleWebKit/537.36 (KHTML, like Gecko) Chrome/115.0.0.0 Safari/537.36" etag="8zJjKpFU_SJWdQfG36-4" version="21.6.6" type="github">
  <diagram name="第 1 页" id="rY4jq-13awJzELdeVJwO">
    <mxGraphModel dx="2074" dy="1118" grid="1" gridSize="10" guides="1" tooltips="1" connect="1" arrows="1" fold="1" page="1" pageScale="1" pageWidth="1100" pageHeight="850" math="0" shadow="0">
      <root>
        <mxCell id="0" />
        <mxCell id="1" parent="0" />
        <mxCell id="lNV1BjXNFT9KpLWE9t8--2" value="" style="rounded=0;whiteSpace=wrap;html=1;gradientDirection=east;" vertex="1" parent="1">
          <mxGeometry x="130" y="50" width="1100" height="520" as="geometry" />
        </mxCell>
        <mxCell id="lNV1BjXNFT9KpLWE9t8--3" value="" style="rounded=0;whiteSpace=wrap;html=1;labelBackgroundColor=none;fillColor=#fff2cc;strokeColor=#d6b656;fontSize=15;fontStyle=1;labelBorderColor=none;" vertex="1" parent="1">
          <mxGeometry x="270" y="310" width="30" height="20" as="geometry" />
        </mxCell>
        <mxCell id="lNV1BjXNFT9KpLWE9t8--4" value="" style="rounded=0;whiteSpace=wrap;html=1;labelBackgroundColor=none;fontSize=15;fontStyle=1;gradientDirection=east;gradientColor=#0000FF;labelBorderColor=none;" vertex="1" parent="1">
          <mxGeometry x="190" y="300" width="30" height="50" as="geometry" />
        </mxCell>
        <mxCell id="lNV1BjXNFT9KpLWE9t8--5" value="" style="edgeStyle=orthogonalEdgeStyle;rounded=0;orthogonalLoop=1;jettySize=auto;html=1;labelBorderColor=none;" edge="1" parent="1" source="lNV1BjXNFT9KpLWE9t8--6" target="lNV1BjXNFT9KpLWE9t8--11">
          <mxGeometry relative="1" as="geometry" />
        </mxCell>
        <mxCell id="lNV1BjXNFT9KpLWE9t8--6" value="" style="rounded=0;whiteSpace=wrap;html=1;labelBackgroundColor=none;fillColor=#FFFFFF;strokeColor=#000000;fontSize=15;fontStyle=1;gradientColor=#FFF2CC;gradientDirection=east;labelBorderColor=none;" vertex="1" parent="1">
          <mxGeometry x="190" y="330" width="30" height="20" as="geometry" />
        </mxCell>
        <mxCell id="lNV1BjXNFT9KpLWE9t8--7" value="" style="rounded=0;whiteSpace=wrap;html=1;labelBackgroundColor=none;fontSize=15;fontStyle=1;gradientDirection=east;gradientColor=#0000FF;labelBorderColor=none;" vertex="1" parent="1">
          <mxGeometry x="490" y="260" width="30" height="250" as="geometry" />
        </mxCell>
        <mxCell id="lNV1BjXNFT9KpLWE9t8--8" value="" style="rounded=0;whiteSpace=wrap;html=1;labelBackgroundColor=none;fontSize=15;fontStyle=1;gradientDirection=east;gradientColor=#0000FF;labelBorderColor=none;" vertex="1" parent="1">
          <mxGeometry x="420" y="250" width="30" height="260" as="geometry" />
        </mxCell>
        <mxCell id="lNV1BjXNFT9KpLWE9t8--9" value="" style="endArrow=classic;html=1;rounded=0;labelBackgroundColor=none;strokeColor=#050505;fontColor=default;strokeWidth=4;fontSize=15;fontStyle=1;entryX=-0.242;entryY=-0.064;entryDx=0;entryDy=0;entryPerimeter=0;" edge="1" parent="1" target="lNV1BjXNFT9KpLWE9t8--14">
          <mxGeometry width="50" height="50" relative="1" as="geometry">
            <mxPoint x="170" y="510" as="sourcePoint" />
            <mxPoint x="170" y="110" as="targetPoint" />
          </mxGeometry>
        </mxCell>
        <mxCell id="lNV1BjXNFT9KpLWE9t8--10" value="" style="endArrow=none;html=1;rounded=0;labelBackgroundColor=none;strokeColor=#E07A5F;fontColor=default;fontSize=15;fontStyle=1;labelBorderColor=none;" edge="1" parent="1" target="lNV1BjXNFT9KpLWE9t8--11">
          <mxGeometry width="50" height="50" relative="1" as="geometry">
            <mxPoint x="190" y="410" as="sourcePoint" />
            <mxPoint x="240" y="360" as="targetPoint" />
          </mxGeometry>
        </mxCell>
        <mxCell id="lNV1BjXNFT9KpLWE9t8--11" value="" style="rounded=0;whiteSpace=wrap;html=1;labelBackgroundColor=none;fillColor=#FFFFFF;strokeColor=#000000;fontColor=#000000;fontSize=15;fontStyle=1;gradientColor=#33FF33;gradientDirection=east;labelBorderColor=none;" vertex="1" parent="1">
          <mxGeometry x="190" y="350" width="30" height="160" as="geometry" />
        </mxCell>
        <mxCell id="lNV1BjXNFT9KpLWE9t8--12" value="" style="rounded=0;whiteSpace=wrap;html=1;labelBackgroundColor=none;fontSize=15;fontStyle=1;gradientDirection=east;gradientColor=#FF0000;labelBorderColor=none;" vertex="1" parent="1">
          <mxGeometry x="190" y="220" width="30" height="90" as="geometry" />
        </mxCell>
        <mxCell id="lNV1BjXNFT9KpLWE9t8--13" value="100%" style="text;html=1;align=center;verticalAlign=middle;resizable=0;points=[];autosize=1;strokeColor=none;fillColor=none;labelBackgroundColor=none;fontColor=#393C56;fontSize=15;fontStyle=1" vertex="1" parent="1">
          <mxGeometry x="170" y="182.5" width="60" height="30" as="geometry" />
        </mxCell>
        <mxCell id="lNV1BjXNFT9KpLWE9t8--14" value="&lt;span style=&quot;color: rgb(0, 0, 0); font-family: Helvetica; font-size: 15px; font-style: normal; font-variant-ligatures: normal; font-variant-caps: normal; letter-spacing: normal; orphans: 2; text-align: center; text-indent: 0px; text-transform: none; widows: 2; word-spacing: 0px; -webkit-text-stroke-width: 0px; background-color: rgb(251, 251, 251); text-decoration-thickness: initial; text-decoration-style: initial; text-decoration-color: initial; float: none; display: inline !important;&quot;&gt;%&lt;/span&gt;" style="text;whiteSpace=wrap;html=1;labelBackgroundColor=none;fontColor=#393C56;fontSize=15;fontStyle=1" vertex="1" parent="1">
          <mxGeometry x="180" y="150" width="40" height="40" as="geometry" />
        </mxCell>
        <mxCell id="lNV1BjXNFT9KpLWE9t8--15" value="90.19" style="text;html=1;align=center;verticalAlign=middle;resizable=0;points=[];autosize=1;strokeColor=none;fillColor=none;labelBackgroundColor=none;fontColor=#393C56;fontSize=15;fontStyle=1;labelBorderColor=none;" vertex="1" parent="1">
          <mxGeometry x="220" y="275" width="60" height="30" as="geometry" />
        </mxCell>
        <mxCell id="lNV1BjXNFT9KpLWE9t8--16" value="85.32" style="text;html=1;align=center;verticalAlign=middle;resizable=0;points=[];autosize=1;strokeColor=none;fillColor=none;labelBackgroundColor=none;fontColor=#393C56;fontSize=15;fontStyle=1;labelBorderColor=none;" vertex="1" parent="1">
          <mxGeometry x="210" y="340" width="60" height="30" as="geometry" />
        </mxCell>
        <mxCell id="lNV1BjXNFT9KpLWE9t8--17" value="" style="endArrow=none;html=1;rounded=0;labelBackgroundColor=none;strokeColor=#E07A5F;fontColor=default;fontSize=15;fontStyle=1;labelBorderColor=none;" edge="1" parent="1" target="lNV1BjXNFT9KpLWE9t8--18">
          <mxGeometry width="50" height="50" relative="1" as="geometry">
            <mxPoint x="270" y="410" as="sourcePoint" />
            <mxPoint x="320" y="360" as="targetPoint" />
          </mxGeometry>
        </mxCell>
        <mxCell id="lNV1BjXNFT9KpLWE9t8--18" value="" style="rounded=0;whiteSpace=wrap;html=1;labelBackgroundColor=none;fillColor=#FFFFFF;strokeColor=#000000;fontColor=#393C56;fontSize=15;fontStyle=1;gradientColor=#33FF33;gradientDirection=east;labelBorderColor=none;" vertex="1" parent="1">
          <mxGeometry x="270" y="310" width="30" height="200" as="geometry" />
        </mxCell>
        <mxCell id="lNV1BjXNFT9KpLWE9t8--19" value="" style="rounded=0;whiteSpace=wrap;html=1;labelBackgroundColor=none;fontSize=15;fontStyle=1;gradientDirection=east;gradientColor=#0000FF;labelBorderColor=none;" vertex="1" parent="1">
          <mxGeometry x="270" y="300" width="30" height="30" as="geometry" />
        </mxCell>
        <mxCell id="lNV1BjXNFT9KpLWE9t8--20" value="" style="rounded=0;whiteSpace=wrap;html=1;labelBackgroundColor=none;fontSize=15;fontStyle=1;gradientDirection=east;gradientColor=#FF0000;labelBorderColor=none;" vertex="1" parent="1">
          <mxGeometry x="270" y="220" width="30" height="80" as="geometry" />
        </mxCell>
        <mxCell id="lNV1BjXNFT9KpLWE9t8--21" value="91.45" style="text;html=1;align=center;verticalAlign=middle;resizable=0;points=[];autosize=1;strokeColor=none;fillColor=none;labelBackgroundColor=none;fontColor=#393C56;fontSize=15;fontStyle=1;labelBorderColor=none;" vertex="1" parent="1">
          <mxGeometry x="290" y="230" width="60" height="30" as="geometry" />
        </mxCell>
        <mxCell id="lNV1BjXNFT9KpLWE9t8--22" value="89" style="text;html=1;align=center;verticalAlign=middle;resizable=0;points=[];autosize=1;strokeColor=none;fillColor=none;labelBackgroundColor=none;fontColor=#393C56;fontSize=15;fontStyle=1;labelBorderColor=none;" vertex="1" parent="1">
          <mxGeometry x="300" y="310" width="40" height="30" as="geometry" />
        </mxCell>
        <mxCell id="lNV1BjXNFT9KpLWE9t8--23" value="" style="endArrow=none;html=1;rounded=0;labelBackgroundColor=none;strokeColor=#E07A5F;fontColor=default;fontSize=15;fontStyle=1;labelBorderColor=none;" edge="1" parent="1">
          <mxGeometry width="50" height="50" relative="1" as="geometry">
            <mxPoint x="385" y="410" as="sourcePoint" />
            <mxPoint x="385" y="410" as="targetPoint" />
          </mxGeometry>
        </mxCell>
        <mxCell id="lNV1BjXNFT9KpLWE9t8--24" value="" style="rounded=0;whiteSpace=wrap;html=1;labelBackgroundColor=none;fontSize=15;fontStyle=1;gradientDirection=east;gradientColor=#0000FF;labelBorderColor=none;" vertex="1" parent="1">
          <mxGeometry x="340" y="240" width="30" height="270" as="geometry" />
        </mxCell>
        <mxCell id="lNV1BjXNFT9KpLWE9t8--25" value="" style="rounded=0;whiteSpace=wrap;html=1;labelBackgroundColor=none;fontSize=15;fontStyle=1;gradientDirection=east;gradientColor=#FF0000;labelBorderColor=none;" vertex="1" parent="1">
          <mxGeometry x="340" y="220" width="30" height="20" as="geometry" />
        </mxCell>
        <mxCell id="lNV1BjXNFT9KpLWE9t8--26" value="" style="endArrow=none;html=1;rounded=0;labelBackgroundColor=none;strokeColor=#E07A5F;fontColor=default;fontSize=15;fontStyle=1;labelBorderColor=none;" edge="1" parent="1" target="lNV1BjXNFT9KpLWE9t8--27">
          <mxGeometry width="50" height="50" relative="1" as="geometry">
            <mxPoint x="1030" y="410" as="sourcePoint" />
            <mxPoint x="1080" y="360" as="targetPoint" />
          </mxGeometry>
        </mxCell>
        <mxCell id="lNV1BjXNFT9KpLWE9t8--27" value="" style="rounded=0;whiteSpace=wrap;html=1;labelBackgroundColor=none;fontSize=15;fontStyle=1;gradientDirection=east;gradientColor=#0000FF;labelBorderColor=none;" vertex="1" parent="1">
          <mxGeometry x="1030" y="240" width="30" height="270" as="geometry" />
        </mxCell>
        <mxCell id="lNV1BjXNFT9KpLWE9t8--28" value="" style="rounded=0;whiteSpace=wrap;html=1;labelBackgroundColor=none;fontSize=15;fontStyle=1;gradientColor=#FF0000;gradientDirection=east;labelBorderColor=none;" vertex="1" parent="1">
          <mxGeometry x="1030" y="220" width="30" height="30" as="geometry" />
        </mxCell>
        <mxCell id="lNV1BjXNFT9KpLWE9t8--29" value="" style="rounded=0;whiteSpace=wrap;html=1;labelBackgroundColor=none;fontSize=15;fontStyle=1;gradientDirection=east;gradientColor=#0000FF;labelBorderColor=none;" vertex="1" parent="1">
          <mxGeometry x="1100" y="260" width="30" height="250" as="geometry" />
        </mxCell>
        <mxCell id="lNV1BjXNFT9KpLWE9t8--30" value="" style="rounded=0;whiteSpace=wrap;html=1;labelBackgroundColor=none;fontSize=15;fontStyle=1;gradientColor=#FF0000;gradientDirection=east;labelBorderColor=none;" vertex="1" parent="1">
          <mxGeometry x="1100" y="220" width="30" height="40" as="geometry" />
        </mxCell>
        <mxCell id="lNV1BjXNFT9KpLWE9t8--31" value="" style="endArrow=none;html=1;rounded=0;labelBackgroundColor=none;strokeColor=#E07A5F;fontColor=default;fontSize=15;fontStyle=1;labelBorderColor=none;" edge="1" parent="1">
          <mxGeometry width="50" height="50" relative="1" as="geometry">
            <mxPoint x="870" y="410" as="sourcePoint" />
            <mxPoint x="870" y="410" as="targetPoint" />
          </mxGeometry>
        </mxCell>
        <mxCell id="lNV1BjXNFT9KpLWE9t8--32" value="" style="rounded=0;whiteSpace=wrap;html=1;labelBackgroundColor=none;fontSize=15;fontStyle=1;gradientDirection=east;gradientColor=#0000FF;labelBorderColor=none;" vertex="1" parent="1">
          <mxGeometry x="880" y="240" width="30" height="270" as="geometry" />
        </mxCell>
        <mxCell id="lNV1BjXNFT9KpLWE9t8--33" value="" style="rounded=0;whiteSpace=wrap;html=1;labelBackgroundColor=none;fontSize=15;fontStyle=1;gradientColor=#FF0000;gradientDirection=east;labelBorderColor=none;" vertex="1" parent="1">
          <mxGeometry x="880" y="220" width="30" height="50" as="geometry" />
        </mxCell>
        <mxCell id="lNV1BjXNFT9KpLWE9t8--34" value="" style="endArrow=none;html=1;rounded=0;labelBackgroundColor=none;strokeColor=#E07A5F;fontColor=default;fontSize=15;fontStyle=1;labelBorderColor=none;" edge="1" parent="1" target="lNV1BjXNFT9KpLWE9t8--35">
          <mxGeometry width="50" height="50" relative="1" as="geometry">
            <mxPoint x="810" y="410" as="sourcePoint" />
            <mxPoint x="860" y="360" as="targetPoint" />
          </mxGeometry>
        </mxCell>
        <mxCell id="lNV1BjXNFT9KpLWE9t8--35" value="" style="rounded=0;whiteSpace=wrap;html=1;labelBackgroundColor=none;fontSize=15;fontStyle=1;gradientDirection=east;gradientColor=#0000FF;labelBorderColor=none;" vertex="1" parent="1">
          <mxGeometry x="810" y="290" width="30" height="220" as="geometry" />
        </mxCell>
        <mxCell id="lNV1BjXNFT9KpLWE9t8--36" value="" style="rounded=0;whiteSpace=wrap;html=1;labelBackgroundColor=none;fontSize=15;fontStyle=1;gradientColor=#FF0000;gradientDirection=east;labelBorderColor=none;" vertex="1" parent="1">
          <mxGeometry x="810" y="220" width="30" height="70" as="geometry" />
        </mxCell>
        <mxCell id="lNV1BjXNFT9KpLWE9t8--37" value="" style="endArrow=none;html=1;rounded=0;startArrow=none;labelBackgroundColor=none;strokeColor=#E07A5F;fontColor=default;fontSize=15;fontStyle=1;labelBorderColor=none;" edge="1" parent="1" source="lNV1BjXNFT9KpLWE9t8--48" target="lNV1BjXNFT9KpLWE9t8--38">
          <mxGeometry width="50" height="50" relative="1" as="geometry">
            <mxPoint x="760" y="35" as="sourcePoint" />
            <mxPoint x="810" y="-15" as="targetPoint" />
          </mxGeometry>
        </mxCell>
        <mxCell id="lNV1BjXNFT9KpLWE9t8--38" value="" style="rounded=0;whiteSpace=wrap;html=1;labelBackgroundColor=none;fontSize=15;fontStyle=1;gradientDirection=east;gradientColor=#0000FF;labelBorderColor=none;" vertex="1" parent="1">
          <mxGeometry x="740" y="240" width="30" height="270" as="geometry" />
        </mxCell>
        <mxCell id="lNV1BjXNFT9KpLWE9t8--39" value="" style="endArrow=none;html=1;rounded=0;labelBackgroundColor=none;strokeColor=#E07A5F;fontColor=default;fontSize=15;fontStyle=1;labelBorderColor=none;" edge="1" parent="1">
          <mxGeometry width="50" height="50" relative="1" as="geometry">
            <mxPoint x="945" y="410" as="sourcePoint" />
            <mxPoint x="945" y="410" as="targetPoint" />
          </mxGeometry>
        </mxCell>
        <mxCell id="lNV1BjXNFT9KpLWE9t8--40" value="" style="rounded=0;whiteSpace=wrap;html=1;labelBackgroundColor=none;fontSize=15;fontStyle=1;gradientDirection=east;gradientColor=#0000FF;labelBorderColor=none;" vertex="1" parent="1">
          <mxGeometry x="955" y="240" width="30" height="270" as="geometry" />
        </mxCell>
        <mxCell id="lNV1BjXNFT9KpLWE9t8--41" value="" style="rounded=0;whiteSpace=wrap;html=1;labelBackgroundColor=none;fontSize=15;fontStyle=1;gradientColor=#FF0000;gradientDirection=east;labelBorderColor=none;" vertex="1" parent="1">
          <mxGeometry x="955" y="220" width="30" height="20" as="geometry" />
        </mxCell>
        <mxCell id="lNV1BjXNFT9KpLWE9t8--42" value="" style="endArrow=none;html=1;rounded=0;labelBackgroundColor=none;strokeColor=#E07A5F;fontColor=default;fontSize=15;fontStyle=1;labelBorderColor=none;" edge="1" parent="1">
          <mxGeometry width="50" height="50" relative="1" as="geometry">
            <mxPoint x="635" y="410" as="sourcePoint" />
            <mxPoint x="635" y="410" as="targetPoint" />
          </mxGeometry>
        </mxCell>
        <mxCell id="lNV1BjXNFT9KpLWE9t8--43" value="" style="rounded=0;whiteSpace=wrap;html=1;labelBackgroundColor=none;fontSize=15;fontStyle=1;gradientDirection=east;gradientColor=#0000FF;labelBorderColor=none;" vertex="1" parent="1">
          <mxGeometry x="655" y="220" width="30" height="290" as="geometry" />
        </mxCell>
        <mxCell id="lNV1BjXNFT9KpLWE9t8--44" value="" style="rounded=0;whiteSpace=wrap;html=1;labelBackgroundColor=none;fontSize=15;fontStyle=1;gradientDirection=east;gradientColor=#0000FF;labelBorderColor=none;" vertex="1" parent="1">
          <mxGeometry x="575" y="240" width="30" height="270" as="geometry" />
        </mxCell>
        <mxCell id="lNV1BjXNFT9KpLWE9t8--45" value="" style="rounded=0;whiteSpace=wrap;html=1;labelBackgroundColor=none;fontSize=15;fontStyle=1;gradientDirection=east;gradientColor=#FF0000;labelBorderColor=none;" vertex="1" parent="1">
          <mxGeometry x="575" y="220" width="30" height="20" as="geometry" />
        </mxCell>
        <mxCell id="lNV1BjXNFT9KpLWE9t8--46" value="" style="rounded=0;whiteSpace=wrap;html=1;labelBackgroundColor=none;fontSize=15;fontStyle=1;gradientDirection=east;gradientColor=#FF0000;labelBorderColor=none;" vertex="1" parent="1">
          <mxGeometry x="490" y="220" width="30" height="40" as="geometry" />
        </mxCell>
        <mxCell id="lNV1BjXNFT9KpLWE9t8--47" value="" style="rounded=0;whiteSpace=wrap;html=1;labelBackgroundColor=none;fontSize=15;fontStyle=1;gradientDirection=east;gradientColor=#FF0000;labelBorderColor=none;" vertex="1" parent="1">
          <mxGeometry x="420" y="220" width="30" height="30" as="geometry" />
        </mxCell>
        <mxCell id="lNV1BjXNFT9KpLWE9t8--48" value="" style="rounded=0;whiteSpace=wrap;html=1;labelBackgroundColor=none;fontSize=15;fontStyle=1;gradientDirection=east;gradientColor=#FF0000;labelBorderColor=none;" vertex="1" parent="1">
          <mxGeometry x="740" y="220" width="30" height="80" as="geometry" />
        </mxCell>
        <mxCell id="lNV1BjXNFT9KpLWE9t8--49" value="97.45" style="text;html=1;align=center;verticalAlign=middle;resizable=0;points=[];autosize=1;strokeColor=none;fillColor=none;labelBackgroundColor=none;fontColor=#393C56;fontSize=15;fontStyle=1;labelBorderColor=none;" vertex="1" parent="1">
          <mxGeometry x="360" y="215" width="60" height="30" as="geometry" />
        </mxCell>
        <mxCell id="lNV1BjXNFT9KpLWE9t8--50" value="95.35" style="text;html=1;align=center;verticalAlign=middle;resizable=0;points=[];autosize=1;strokeColor=none;fillColor=none;labelBackgroundColor=none;fontColor=#393C56;fontSize=15;fontStyle=1;labelBorderColor=none;" vertex="1" parent="1">
          <mxGeometry x="600" y="225" width="60" height="30" as="geometry" />
        </mxCell>
        <mxCell id="lNV1BjXNFT9KpLWE9t8--51" value="100" style="text;html=1;align=center;verticalAlign=middle;resizable=0;points=[];autosize=1;strokeColor=none;fillColor=none;labelBackgroundColor=none;fontColor=#393C56;fontSize=15;fontStyle=1;labelBorderColor=none;" vertex="1" parent="1">
          <mxGeometry x="677.5" y="215" width="50" height="30" as="geometry" />
        </mxCell>
        <mxCell id="lNV1BjXNFT9KpLWE9t8--52" value="91.22" style="text;html=1;align=center;verticalAlign=middle;resizable=0;points=[];autosize=1;strokeColor=none;fillColor=none;labelBackgroundColor=none;fontColor=#393C56;fontSize=15;fontStyle=1;labelBorderColor=none;" vertex="1" parent="1">
          <mxGeometry x="760" y="300" width="60" height="30" as="geometry" />
        </mxCell>
        <mxCell id="lNV1BjXNFT9KpLWE9t8--53" value="92.52" style="text;html=1;align=center;verticalAlign=middle;resizable=0;points=[];autosize=1;strokeColor=none;fillColor=none;labelBackgroundColor=none;fontColor=#393C56;fontSize=15;fontStyle=1;labelBorderColor=none;" vertex="1" parent="1">
          <mxGeometry x="830" y="290" width="60" height="30" as="geometry" />
        </mxCell>
        <mxCell id="lNV1BjXNFT9KpLWE9t8--54" value="93.22" style="text;html=1;align=center;verticalAlign=middle;resizable=0;points=[];autosize=1;strokeColor=none;fillColor=none;labelBackgroundColor=none;fontColor=#393C56;fontSize=15;fontStyle=1;labelBorderColor=none;" vertex="1" parent="1">
          <mxGeometry x="902.5" y="260" width="60" height="30" as="geometry" />
        </mxCell>
        <mxCell id="lNV1BjXNFT9KpLWE9t8--55" value="96.36" style="text;html=1;align=center;verticalAlign=middle;resizable=0;points=[];autosize=1;labelBackgroundColor=none;fontSize=15;fontStyle=1;labelBorderColor=none;" vertex="1" parent="1">
          <mxGeometry x="977.5" y="245" width="60" height="30" as="geometry" />
        </mxCell>
        <mxCell id="lNV1BjXNFT9KpLWE9t8--56" value="95.35" style="text;html=1;align=center;verticalAlign=middle;resizable=0;points=[];autosize=1;strokeColor=none;fillColor=none;labelBackgroundColor=none;fontColor=#393C56;fontSize=15;fontStyle=1;labelBorderColor=none;" vertex="1" parent="1">
          <mxGeometry x="1050" y="255" width="60" height="30" as="geometry" />
        </mxCell>
        <mxCell id="lNV1BjXNFT9KpLWE9t8--57" value="93.33" style="text;html=1;align=center;verticalAlign=middle;resizable=0;points=[];autosize=1;strokeColor=none;fillColor=none;labelBackgroundColor=none;fontColor=#393C56;fontSize=15;fontStyle=1;labelBorderColor=none;" vertex="1" parent="1">
          <mxGeometry x="1120" y="260" width="60" height="30" as="geometry" />
        </mxCell>
        <mxCell id="lNV1BjXNFT9KpLWE9t8--58" value="场景触发准确率" style="text;whiteSpace=wrap;html=1;labelBackgroundColor=none;fontColor=#393C56;fontSize=15;fontStyle=1;align=center;" vertex="1" parent="1">
          <mxGeometry x="560" y="517" width="66" height="137" as="geometry" />
        </mxCell>
        <mxCell id="lNV1BjXNFT9KpLWE9t8--59" value="场景执行成功率" style="text;whiteSpace=wrap;html=1;labelBackgroundColor=none;fontColor=#393C56;fontSize=15;fontStyle=1;align=center;" vertex="1" parent="1">
          <mxGeometry x="637" y="518" width="66" height="136" as="geometry" />
        </mxCell>
        <mxCell id="lNV1BjXNFT9KpLWE9t8--60" value="忘关机识别率" style="text;whiteSpace=wrap;html=1;labelBackgroundColor=none;fontColor=#393C56;fontSize=15;fontStyle=1" vertex="1" parent="1">
          <mxGeometry x="730" y="514" width="50" height="126" as="geometry" />
        </mxCell>
        <mxCell id="lNV1BjXNFT9KpLWE9t8--61" value="反模式识别率" style="text;whiteSpace=wrap;html=1;labelBackgroundColor=none;fontColor=#393C56;fontSize=15;fontStyle=1" vertex="1" parent="1">
          <mxGeometry x="800" y="515" width="51" height="126" as="geometry" />
        </mxCell>
        <mxCell id="lNV1BjXNFT9KpLWE9t8--62" value="除湿异常识别率" style="text;whiteSpace=wrap;html=1;labelBackgroundColor=none;fontColor=#393C56;fontSize=15;fontStyle=1;align=center;" vertex="1" parent="1">
          <mxGeometry x="860" y="514" width="70" height="135" as="geometry" />
        </mxCell>
        <mxCell id="lNV1BjXNFT9KpLWE9t8--63" value="忘关机&lt;br&gt;有效提醒率" style="text;whiteSpace=wrap;html=1;labelBackgroundColor=none;fontColor=#393C56;fontSize=15;fontStyle=1;align=center;" vertex="1" parent="1">
          <mxGeometry x="927" y="512" width="80" height="97.5" as="geometry" />
        </mxCell>
        <mxCell id="lNV1BjXNFT9KpLWE9t8--64" value="反模式&lt;br&gt;有效提醒率" style="text;whiteSpace=wrap;html=1;labelBackgroundColor=none;fontColor=#393C56;fontSize=15;fontStyle=1;align=center;" vertex="1" parent="1">
          <mxGeometry x="1006" y="512" width="80" height="44" as="geometry" />
        </mxCell>
        <mxCell id="lNV1BjXNFT9KpLWE9t8--65" value="除湿异常&lt;br&gt;有效提醒率" style="text;whiteSpace=wrap;html=1;labelBackgroundColor=none;fontColor=#393C56;fontSize=15;fontStyle=1;align=center;" vertex="1" parent="1">
          <mxGeometry x="1088" y="512" width="80" height="40" as="geometry" />
        </mxCell>
        <mxCell id="lNV1BjXNFT9KpLWE9t8--66" value="湿度&lt;br&gt;准确率" style="text;whiteSpace=wrap;html=1;fontColor=#393C56;fontSize=15;fontStyle=1;align=center;" vertex="1" parent="1">
          <mxGeometry x="326" y="515" width="62" height="90" as="geometry" />
        </mxCell>
        <mxCell id="lNV1BjXNFT9KpLWE9t8--67" value="" style="endArrow=none;dashed=1;html=1;rounded=0;strokeColor=#0000FF;fontColor=#393C56;fillColor=#F2CC8F;exitX=0.5;exitY=1;exitDx=0;exitDy=0;entryX=0.5;entryY=1;entryDx=0;entryDy=0;strokeWidth=4;fontSize=15;fontStyle=1;labelBorderColor=none;" edge="1" parent="1" source="lNV1BjXNFT9KpLWE9t8--12" target="lNV1BjXNFT9KpLWE9t8--20">
          <mxGeometry width="50" height="50" relative="1" as="geometry">
            <mxPoint x="210" y="320" as="sourcePoint" />
            <mxPoint x="260" y="270" as="targetPoint" />
          </mxGeometry>
        </mxCell>
        <mxCell id="lNV1BjXNFT9KpLWE9t8--68" value="" style="endArrow=none;dashed=1;html=1;rounded=0;strokeColor=#0000FF;fontColor=#393C56;fillColor=#F2CC8F;exitX=0.5;exitY=1;exitDx=0;exitDy=0;entryX=0.5;entryY=0;entryDx=0;entryDy=0;strokeWidth=4;fontSize=15;fontStyle=1;labelBorderColor=none;" edge="1" parent="1" source="lNV1BjXNFT9KpLWE9t8--20" target="lNV1BjXNFT9KpLWE9t8--24">
          <mxGeometry width="50" height="50" relative="1" as="geometry">
            <mxPoint x="290" y="300" as="sourcePoint" />
            <mxPoint x="370" y="280" as="targetPoint" />
          </mxGeometry>
        </mxCell>
        <mxCell id="lNV1BjXNFT9KpLWE9t8--69" value="" style="endArrow=none;dashed=1;html=1;rounded=0;strokeColor=#0000FF;fontColor=#393C56;fillColor=#F2CC8F;entryX=0.5;entryY=0;entryDx=0;entryDy=0;strokeWidth=4;fontSize=15;fontStyle=1;exitX=0.5;exitY=0;exitDx=0;exitDy=0;labelBorderColor=none;" edge="1" parent="1" source="lNV1BjXNFT9KpLWE9t8--8" target="lNV1BjXNFT9KpLWE9t8--24">
          <mxGeometry width="50" height="50" relative="1" as="geometry">
            <mxPoint x="430" y="250" as="sourcePoint" />
            <mxPoint x="380" y="250" as="targetPoint" />
          </mxGeometry>
        </mxCell>
        <mxCell id="lNV1BjXNFT9KpLWE9t8--70" value="" style="endArrow=none;dashed=1;html=1;rounded=0;strokeColor=#0000FF;fontColor=#393C56;fillColor=#F2CC8F;strokeWidth=4;fontSize=15;fontStyle=1;startArrow=none;labelBorderColor=none;" edge="1" parent="1">
          <mxGeometry width="50" height="50" relative="1" as="geometry">
            <mxPoint x="440" y="250" as="sourcePoint" />
            <mxPoint x="510" y="260" as="targetPoint" />
          </mxGeometry>
        </mxCell>
        <mxCell id="lNV1BjXNFT9KpLWE9t8--71" value="" style="endArrow=none;dashed=1;html=1;rounded=0;strokeColor=#0000FF;fontColor=#393C56;fillColor=#F2CC8F;exitX=0.5;exitY=0;exitDx=0;exitDy=0;strokeWidth=4;fontSize=15;fontStyle=1;labelBorderColor=none;" edge="1" parent="1" source="lNV1BjXNFT9KpLWE9t8--44">
          <mxGeometry width="50" height="50" relative="1" as="geometry">
            <mxPoint x="465" y="260" as="sourcePoint" />
            <mxPoint x="510" y="260" as="targetPoint" />
          </mxGeometry>
        </mxCell>
        <mxCell id="lNV1BjXNFT9KpLWE9t8--72" value="" style="endArrow=none;dashed=1;html=1;rounded=0;strokeColor=#0000FF;fontColor=#393C56;fillColor=#F2CC8F;exitX=0.5;exitY=0;exitDx=0;exitDy=0;entryX=0.5;entryY=0;entryDx=0;entryDy=0;strokeWidth=4;fontSize=15;fontStyle=1;labelBorderColor=none;" edge="1" parent="1" source="lNV1BjXNFT9KpLWE9t8--44">
          <mxGeometry width="50" height="50" relative="1" as="geometry">
            <mxPoint x="600" y="250" as="sourcePoint" />
            <mxPoint x="670" y="220" as="targetPoint" />
          </mxGeometry>
        </mxCell>
        <mxCell id="lNV1BjXNFT9KpLWE9t8--73" value="" style="endArrow=none;dashed=1;html=1;rounded=0;strokeColor=#0000FF;fontColor=#393C56;fillColor=#F2CC8F;exitX=0.5;exitY=1;exitDx=0;exitDy=0;entryX=0.5;entryY=0;entryDx=0;entryDy=0;strokeWidth=4;fontSize=15;fontStyle=1;labelBorderColor=none;" edge="1" parent="1" source="lNV1BjXNFT9KpLWE9t8--48" target="lNV1BjXNFT9KpLWE9t8--43">
          <mxGeometry width="50" height="50" relative="1" as="geometry">
            <mxPoint x="615" y="250" as="sourcePoint" />
            <mxPoint x="695" y="233" as="targetPoint" />
          </mxGeometry>
        </mxCell>
        <mxCell id="lNV1BjXNFT9KpLWE9t8--74" value="" style="endArrow=none;dashed=1;html=1;rounded=0;strokeColor=#0000FF;fontColor=#393C56;fillColor=#F2CC8F;exitX=0.5;exitY=1;exitDx=0;exitDy=0;entryX=0.5;entryY=1;entryDx=0;entryDy=0;strokeWidth=4;fontSize=15;fontStyle=1;labelBorderColor=none;" edge="1" parent="1" source="lNV1BjXNFT9KpLWE9t8--36" target="lNV1BjXNFT9KpLWE9t8--48">
          <mxGeometry width="50" height="50" relative="1" as="geometry">
            <mxPoint x="770" y="310" as="sourcePoint" />
            <mxPoint x="695" y="230" as="targetPoint" />
          </mxGeometry>
        </mxCell>
        <mxCell id="lNV1BjXNFT9KpLWE9t8--75" value="" style="endArrow=none;dashed=1;html=1;rounded=0;strokeColor=#0000FF;fontColor=#393C56;fillColor=#F2CC8F;exitX=0.5;exitY=1;exitDx=0;exitDy=0;entryX=0.467;entryY=0.988;entryDx=0;entryDy=0;entryPerimeter=0;strokeWidth=4;fontSize=15;fontStyle=1;labelBorderColor=none;" edge="1" parent="1" source="lNV1BjXNFT9KpLWE9t8--36" target="lNV1BjXNFT9KpLWE9t8--33">
          <mxGeometry width="50" height="50" relative="1" as="geometry">
            <mxPoint x="845" y="300" as="sourcePoint" />
            <mxPoint x="910" y="270" as="targetPoint" />
          </mxGeometry>
        </mxCell>
        <mxCell id="lNV1BjXNFT9KpLWE9t8--76" value="" style="endArrow=none;dashed=1;html=1;rounded=0;strokeColor=#0000FF;fontColor=#393C56;fillColor=#F2CC8F;exitX=0.5;exitY=0;exitDx=0;exitDy=0;entryX=0.5;entryY=1;entryDx=0;entryDy=0;strokeWidth=4;fontSize=15;fontStyle=1;labelBorderColor=none;" edge="1" parent="1" source="lNV1BjXNFT9KpLWE9t8--40" target="lNV1BjXNFT9KpLWE9t8--33">
          <mxGeometry width="50" height="50" relative="1" as="geometry">
            <mxPoint x="845" y="300" as="sourcePoint" />
            <mxPoint x="916" y="280" as="targetPoint" />
          </mxGeometry>
        </mxCell>
        <mxCell id="lNV1BjXNFT9KpLWE9t8--77" value="" style="endArrow=none;dashed=1;html=1;rounded=0;strokeColor=#0000FF;fontColor=#393C56;fillColor=#F2CC8F;exitX=0.5;exitY=0;exitDx=0;exitDy=0;entryX=0.5;entryY=1;entryDx=0;entryDy=0;strokeWidth=4;fontSize=15;fontStyle=1;labelBorderColor=none;" edge="1" parent="1" source="lNV1BjXNFT9KpLWE9t8--40" target="lNV1BjXNFT9KpLWE9t8--28">
          <mxGeometry width="50" height="50" relative="1" as="geometry">
            <mxPoint x="980" y="250" as="sourcePoint" />
            <mxPoint x="915" y="280" as="targetPoint" />
          </mxGeometry>
        </mxCell>
        <mxCell id="lNV1BjXNFT9KpLWE9t8--78" value="" style="endArrow=none;dashed=1;html=1;rounded=0;strokeColor=#0000FF;fontColor=#393C56;fillColor=#F2CC8F;exitX=0.5;exitY=1;exitDx=0;exitDy=0;entryX=0.5;entryY=0;entryDx=0;entryDy=0;strokeWidth=4;fontSize=15;fontStyle=1;labelBorderColor=none;" edge="1" parent="1" source="lNV1BjXNFT9KpLWE9t8--28" target="lNV1BjXNFT9KpLWE9t8--29">
          <mxGeometry width="50" height="50" relative="1" as="geometry">
            <mxPoint x="980" y="250" as="sourcePoint" />
            <mxPoint x="1055" y="260" as="targetPoint" />
          </mxGeometry>
        </mxCell>
        <mxCell id="lNV1BjXNFT9KpLWE9t8--79" value="" style="endArrow=none;dashed=1;html=1;strokeWidth=4;rounded=0;entryX=0.5;entryY=0;entryDx=0;entryDy=0;labelBackgroundColor=none;strokeColor=#FF3333;fontColor=default;fontSize=15;fontStyle=1;labelBorderColor=none;" edge="1" parent="1" target="lNV1BjXNFT9KpLWE9t8--30">
          <mxGeometry width="50" height="50" relative="1" as="geometry">
            <mxPoint x="170" y="220" as="sourcePoint" />
            <mxPoint x="585" y="175" as="targetPoint" />
          </mxGeometry>
        </mxCell>
        <mxCell id="lNV1BjXNFT9KpLWE9t8--80" value="93.35" style="text;html=1;align=center;verticalAlign=middle;resizable=0;points=[];autosize=1;strokeColor=none;fillColor=none;labelBackgroundColor=none;fontColor=#393C56;strokeWidth=4;fontSize=15;fontStyle=1;labelBorderColor=none;" vertex="1" parent="1">
          <mxGeometry x="515" y="222.5" width="60" height="30" as="geometry" />
        </mxCell>
        <mxCell id="lNV1BjXNFT9KpLWE9t8--81" value="托管调节类指标" style="rounded=0;whiteSpace=wrap;html=1;fontSize=18;fontStyle=0;strokeColor=#FFFFFF;" vertex="1" parent="1">
          <mxGeometry x="270" y="137.5" width="170" height="75" as="geometry" />
        </mxCell>
        <mxCell id="lNV1BjXNFT9KpLWE9t8--82" value="智慧场景类指标" style="rounded=0;whiteSpace=wrap;html=1;fontSize=18;fontStyle=0;strokeColor=#FFFFFF;" vertex="1" parent="1">
          <mxGeometry x="547.5" y="137.5" width="165" height="75" as="geometry" />
        </mxCell>
        <mxCell id="lNV1BjXNFT9KpLWE9t8--83" value="空气服务类指标" style="rounded=0;whiteSpace=wrap;html=1;fontSize=18;fontStyle=0;strokeColor=#FFFFFF;" vertex="1" parent="1">
          <mxGeometry x="800" y="137.5" width="170" height="75" as="geometry" />
        </mxCell>
        <mxCell id="lNV1BjXNFT9KpLWE9t8--84" value="" style="endArrow=none;dashed=1;html=1;rounded=0;strokeColor=#0000FF;fontColor=#393C56;fillColor=#F2CC8F;exitX=0.5;exitY=1;exitDx=0;exitDy=0;strokeWidth=4;fontSize=15;fontStyle=1" edge="1" parent="1">
          <mxGeometry width="50" height="50" relative="1" as="geometry">
            <mxPoint x="1062.5" y="95" as="sourcePoint" />
            <mxPoint x="1122.5" y="95" as="targetPoint" />
          </mxGeometry>
        </mxCell>
        <mxCell id="lNV1BjXNFT9KpLWE9t8--85" value="" style="endArrow=none;dashed=1;html=1;strokeWidth=4;rounded=0;labelBackgroundColor=none;strokeColor=#FF3333;fontColor=default;fontSize=15;fontStyle=1" edge="1" parent="1">
          <mxGeometry width="50" height="50" relative="1" as="geometry">
            <mxPoint x="1062.5" y="69.66" as="sourcePoint" />
            <mxPoint x="1122.5" y="69.66" as="targetPoint" />
          </mxGeometry>
        </mxCell>
        <mxCell id="lNV1BjXNFT9KpLWE9t8--86" value="满分" style="text;html=1;strokeColor=none;fillColor=none;align=center;verticalAlign=middle;whiteSpace=wrap;rounded=0;fontColor=#393C56;fontSize=15;fontStyle=1" vertex="1" parent="1">
          <mxGeometry x="1122.5" y="55" width="60" height="30" as="geometry" />
        </mxCell>
        <mxCell id="lNV1BjXNFT9KpLWE9t8--87" value="项目样机" style="text;html=1;strokeColor=none;fillColor=none;align=center;verticalAlign=middle;whiteSpace=wrap;rounded=0;fontColor=#393C56;fontSize=15;fontStyle=1" vertex="1" parent="1">
          <mxGeometry x="1132.5" y="85" width="70" height="30" as="geometry" />
        </mxCell>
        <mxCell id="lNV1BjXNFT9KpLWE9t8--88" value="" style="endArrow=none;dashed=1;html=1;rounded=0;strokeColor=#00ff4c;fontColor=#393C56;fillColor=#F2CC8F;strokeWidth=4;fontSize=15;fontStyle=1;labelBorderColor=none;" edge="1" parent="1">
          <mxGeometry width="50" height="50" relative="1" as="geometry">
            <mxPoint x="1062.5" y="195" as="sourcePoint" />
            <mxPoint x="1122.5" y="195" as="targetPoint" />
          </mxGeometry>
        </mxCell>
        <mxCell id="lNV1BjXNFT9KpLWE9t8--89" value="团标 T/CITS 0013—2022" style="text;html=1;strokeColor=none;fillColor=none;align=left;verticalAlign=middle;whiteSpace=wrap;rounded=0;fontColor=#393C56;fontSize=15;fontStyle=1" vertex="1" parent="1">
          <mxGeometry x="1132.5" y="182.5" width="105" height="30" as="geometry" />
        </mxCell>
        <mxCell id="lNV1BjXNFT9KpLWE9t8--90" value="95.25" style="text;html=1;align=center;verticalAlign=middle;resizable=0;points=[];autosize=1;strokeColor=none;fillColor=none;labelBackgroundColor=none;fontColor=#393C56;fontSize=15;fontStyle=1;labelBorderColor=none;" vertex="1" parent="1">
          <mxGeometry x="440" y="220" width="60" height="30" as="geometry" />
        </mxCell>
        <mxCell id="lNV1BjXNFT9KpLWE9t8--91" style="edgeStyle=orthogonalEdgeStyle;rounded=0;orthogonalLoop=1;jettySize=auto;html=1;exitX=0.5;exitY=1;exitDx=0;exitDy=0;" edge="1" parent="1" source="lNV1BjXNFT9KpLWE9t8--66" target="lNV1BjXNFT9KpLWE9t8--66">
          <mxGeometry relative="1" as="geometry" />
        </mxCell>
        <mxCell id="lNV1BjXNFT9KpLWE9t8--92" value="" style="endArrow=none;dashed=1;html=1;rounded=0;strokeWidth=2;" edge="1" parent="1">
          <mxGeometry width="50" height="50" relative="1" as="geometry">
            <mxPoint x="540" y="510" as="sourcePoint" />
            <mxPoint x="540" y="130" as="targetPoint" />
          </mxGeometry>
        </mxCell>
        <mxCell id="lNV1BjXNFT9KpLWE9t8--93" value="" style="endArrow=none;dashed=1;html=1;rounded=0;strokeWidth=2;" edge="1" parent="1">
          <mxGeometry width="50" height="50" relative="1" as="geometry">
            <mxPoint x="720" y="510" as="sourcePoint" />
            <mxPoint x="720" y="133.75" as="targetPoint" />
          </mxGeometry>
        </mxCell>
        <mxCell id="lNV1BjXNFT9KpLWE9t8--94" style="edgeStyle=orthogonalEdgeStyle;rounded=0;orthogonalLoop=1;jettySize=auto;html=1;exitX=0.5;exitY=1;exitDx=0;exitDy=0;strokeWidth=2;fontSize=23;" edge="1" parent="1">
          <mxGeometry relative="1" as="geometry">
            <mxPoint x="296.5" y="600" as="sourcePoint" />
            <mxPoint x="296.5" y="600" as="targetPoint" />
          </mxGeometry>
        </mxCell>
        <mxCell id="lNV1BjXNFT9KpLWE9t8--95" value="" style="endArrow=classic;html=1;rounded=0;labelBackgroundColor=none;strokeColor=#000000;fontColor=default;fontSize=15;fontStyle=1;strokeWidth=4;labelBorderColor=none;" edge="1" parent="1">
          <mxGeometry width="50" height="50" relative="1" as="geometry">
            <mxPoint x="170" y="510" as="sourcePoint" />
            <mxPoint x="1180" y="510" as="targetPoint" />
          </mxGeometry>
        </mxCell>
        <mxCell id="lNV1BjXNFT9KpLWE9t8--96" value="风量&lt;br&gt;准确率" style="text;whiteSpace=wrap;html=1;fontColor=#393C56;fontSize=15;fontStyle=1;align=center;" vertex="1" parent="1">
          <mxGeometry x="252" y="516" width="62" height="90" as="geometry" />
        </mxCell>
        <mxCell id="lNV1BjXNFT9KpLWE9t8--97" value="温度&lt;br&gt;准确率" style="text;whiteSpace=wrap;html=1;fontColor=#393C56;fontSize=15;fontStyle=1;align=center;" vertex="1" parent="1">
          <mxGeometry x="172" y="517" width="62" height="90" as="geometry" />
        </mxCell>
        <mxCell id="lNV1BjXNFT9KpLWE9t8--98" value="净化&lt;br&gt;准确率" style="text;whiteSpace=wrap;html=1;fontColor=#393C56;fontSize=15;fontStyle=1;align=center;" vertex="1" parent="1">
          <mxGeometry x="404" y="516" width="62" height="90" as="geometry" />
        </mxCell>
        <mxCell id="lNV1BjXNFT9KpLWE9t8--99" value="新风&lt;br&gt;准确率" style="text;whiteSpace=wrap;html=1;fontColor=#393C56;fontSize=15;fontStyle=1;align=center;" vertex="1" parent="1">
          <mxGeometry x="474" y="515.5" width="62" height="90" as="geometry" />
        </mxCell>
        <mxCell id="lNV1BjXNFT9KpLWE9t8--100" value="" style="rounded=0;whiteSpace=wrap;html=1;labelBackgroundColor=none;fillColor=#FFFFFF;strokeColor=#000000;fontSize=15;fontStyle=1;gradientColor=#FFF2CC;gradientDirection=east;labelBorderColor=none;" vertex="1" parent="1">
          <mxGeometry x="270" y="310" width="30" height="20" as="geometry" />
        </mxCell>
        <mxCell id="lNV1BjXNFT9KpLWE9t8--101" value="90.45" style="text;html=1;align=center;verticalAlign=middle;resizable=0;points=[];autosize=1;strokeColor=none;fillColor=none;labelBackgroundColor=none;fontColor=#393C56;fontSize=15;fontStyle=1;labelBorderColor=none;" vertex="1" parent="1">
          <mxGeometry x="290" y="260" width="60" height="30" as="geometry" />
        </mxCell>
        <mxCell id="lNV1BjXNFT9KpLWE9t8--102" value="" style="rounded=0;whiteSpace=wrap;html=1;labelBackgroundColor=none;fillColor=#FFFFFF;strokeColor=#000000;fontSize=15;fontStyle=1;gradientColor=#FFF2CC;gradientDirection=east;labelBorderColor=none;" vertex="1" parent="1">
          <mxGeometry x="340" y="262.5" width="30" height="245" as="geometry" />
        </mxCell>
        <mxCell id="lNV1BjXNFT9KpLWE9t8--103" value="" style="rounded=0;whiteSpace=wrap;html=1;labelBackgroundColor=none;fillColor=#FFFFFF;strokeColor=#000000;fontSize=15;fontStyle=1;gradientColor=#FFF2CC;gradientDirection=east;labelBorderColor=none;" vertex="1" parent="1">
          <mxGeometry x="420" y="270" width="30" height="237.5" as="geometry" />
        </mxCell>
        <mxCell id="lNV1BjXNFT9KpLWE9t8--104" value="" style="rounded=0;whiteSpace=wrap;html=1;labelBackgroundColor=none;fillColor=#FFFFFF;strokeColor=#000000;fontSize=15;fontStyle=1;gradientColor=#FFF2CC;gradientDirection=east;labelBorderColor=none;" vertex="1" parent="1">
          <mxGeometry x="490" y="280" width="30" height="227.5" as="geometry" />
        </mxCell>
        <mxCell id="lNV1BjXNFT9KpLWE9t8--105" value="" style="rounded=0;whiteSpace=wrap;html=1;labelBackgroundColor=none;fillColor=#FFFFFF;strokeColor=#000000;fontSize=15;fontStyle=1;gradientColor=#FFF2CC;gradientDirection=east;labelBorderColor=none;" vertex="1" parent="1">
          <mxGeometry x="575" y="260" width="30" height="247.5" as="geometry" />
        </mxCell>
        <mxCell id="lNV1BjXNFT9KpLWE9t8--106" value="" style="rounded=0;whiteSpace=wrap;html=1;labelBackgroundColor=none;fillColor=#FFFFFF;strokeColor=#000000;fontSize=15;fontStyle=1;gradientColor=#FFF2CC;gradientDirection=east;labelBorderColor=none;" vertex="1" parent="1">
          <mxGeometry x="655" y="247.5" width="30" height="260" as="geometry" />
        </mxCell>
        <mxCell id="lNV1BjXNFT9KpLWE9t8--107" value="95.25" style="text;html=1;align=center;verticalAlign=middle;resizable=0;points=[];autosize=1;strokeColor=none;fillColor=none;labelBackgroundColor=none;fontColor=#393C56;fontSize=15;fontStyle=1;labelBorderColor=none;" vertex="1" parent="1">
          <mxGeometry x="360" y="250" width="60" height="30" as="geometry" />
        </mxCell>
        <mxCell id="lNV1BjXNFT9KpLWE9t8--108" value="93.23" style="text;html=1;align=center;verticalAlign=middle;resizable=0;points=[];autosize=1;strokeColor=none;fillColor=none;labelBackgroundColor=none;fontColor=#393C56;fontSize=15;fontStyle=1;labelBorderColor=none;" vertex="1" parent="1">
          <mxGeometry x="440" y="255" width="60" height="30" as="geometry" />
        </mxCell>
        <mxCell id="lNV1BjXNFT9KpLWE9t8--109" value="92.15" style="text;html=1;align=center;verticalAlign=middle;resizable=0;points=[];autosize=1;strokeColor=none;fillColor=none;labelBackgroundColor=none;fontColor=#393C56;strokeWidth=4;fontSize=15;fontStyle=1;labelBorderColor=none;" vertex="1" parent="1">
          <mxGeometry x="520" y="262.5" width="60" height="30" as="geometry" />
        </mxCell>
        <mxCell id="lNV1BjXNFT9KpLWE9t8--110" value="94.35" style="text;html=1;align=center;verticalAlign=middle;resizable=0;points=[];autosize=1;strokeColor=none;fillColor=none;labelBackgroundColor=none;fontColor=#393C56;fontSize=15;fontStyle=1;labelBorderColor=none;" vertex="1" parent="1">
          <mxGeometry x="600" y="252.5" width="60" height="30" as="geometry" />
        </mxCell>
        <mxCell id="lNV1BjXNFT9KpLWE9t8--111" value="96.35" style="text;html=1;align=center;verticalAlign=middle;resizable=0;points=[];autosize=1;strokeColor=none;fillColor=none;labelBackgroundColor=none;fontColor=#393C56;fontSize=15;fontStyle=1;labelBorderColor=none;" vertex="1" parent="1">
          <mxGeometry x="672.5" y="240" width="60" height="30" as="geometry" />
        </mxCell>
        <mxCell id="lNV1BjXNFT9KpLWE9t8--112" value="" style="endArrow=none;dashed=1;html=1;rounded=0;strokeColor=#FFF2CC;fontColor=#393C56;fillColor=#ffe6cc;entryX=0.5;entryY=0;entryDx=0;entryDy=0;strokeWidth=4;fontSize=15;fontStyle=1;exitX=0.5;exitY=0;exitDx=0;exitDy=0;labelBorderColor=none;" edge="1" parent="1" source="lNV1BjXNFT9KpLWE9t8--102" target="lNV1BjXNFT9KpLWE9t8--103">
          <mxGeometry width="50" height="50" relative="1" as="geometry">
            <mxPoint x="360" y="260" as="sourcePoint" />
            <mxPoint x="296" y="321" as="targetPoint" />
          </mxGeometry>
        </mxCell>
        <mxCell id="lNV1BjXNFT9KpLWE9t8--113" value="" style="endArrow=none;dashed=1;html=1;rounded=0;strokeColor=#FFF2CC;fontColor=#393C56;fillColor=#ffe6cc;entryX=0.5;entryY=0;entryDx=0;entryDy=0;strokeWidth=4;fontSize=15;fontStyle=1;exitX=0.5;exitY=0;exitDx=0;exitDy=0;labelBorderColor=none;" edge="1" parent="1" source="lNV1BjXNFT9KpLWE9t8--103" target="lNV1BjXNFT9KpLWE9t8--104">
          <mxGeometry width="50" height="50" relative="1" as="geometry">
            <mxPoint x="365" y="273" as="sourcePoint" />
            <mxPoint x="445" y="280" as="targetPoint" />
          </mxGeometry>
        </mxCell>
        <mxCell id="lNV1BjXNFT9KpLWE9t8--114" value="" style="endArrow=none;dashed=1;html=1;rounded=0;strokeColor=#FFF2CC;fontColor=#393C56;fillColor=#ffe6cc;entryX=0.5;entryY=0;entryDx=0;entryDy=0;strokeWidth=4;fontSize=15;fontStyle=1;exitX=0.5;exitY=0;exitDx=0;exitDy=0;labelBorderColor=none;" edge="1" parent="1" source="lNV1BjXNFT9KpLWE9t8--104" target="lNV1BjXNFT9KpLWE9t8--105">
          <mxGeometry width="50" height="50" relative="1" as="geometry">
            <mxPoint x="445" y="280" as="sourcePoint" />
            <mxPoint x="515" y="290" as="targetPoint" />
          </mxGeometry>
        </mxCell>
        <mxCell id="lNV1BjXNFT9KpLWE9t8--115" value="" style="endArrow=none;dashed=1;html=1;rounded=0;strokeColor=#FFF2CC;fontColor=#393C56;fillColor=#ffe6cc;entryX=0.5;entryY=0;entryDx=0;entryDy=0;strokeWidth=4;fontSize=15;fontStyle=1;exitX=0.5;exitY=0;exitDx=0;exitDy=0;labelBorderColor=none;" edge="1" parent="1" source="lNV1BjXNFT9KpLWE9t8--106" target="lNV1BjXNFT9KpLWE9t8--105">
          <mxGeometry width="50" height="50" relative="1" as="geometry">
            <mxPoint x="515" y="290" as="sourcePoint" />
            <mxPoint x="600" y="270" as="targetPoint" />
          </mxGeometry>
        </mxCell>
        <mxCell id="lNV1BjXNFT9KpLWE9t8--116" value="" style="endArrow=none;dashed=1;html=1;rounded=0;strokeColor=#FFF2CC;fontColor=#393C56;fillColor=#ffe6cc;strokeWidth=4;fontSize=15;fontStyle=1;" edge="1" parent="1">
          <mxGeometry width="50" height="50" relative="1" as="geometry">
            <mxPoint x="1122.5" y="125" as="sourcePoint" />
            <mxPoint x="1062.5" y="125" as="targetPoint" />
          </mxGeometry>
        </mxCell>
        <mxCell id="lNV1BjXNFT9KpLWE9t8--117" value="竞品&lt;span style=&quot;white-space: pre;&quot;&gt;&#x9;&lt;/span&gt;1" style="text;html=1;strokeColor=none;fillColor=none;align=center;verticalAlign=middle;whiteSpace=wrap;rounded=0;fontColor=#393C56;fontSize=15;fontStyle=1" vertex="1" parent="1">
          <mxGeometry x="1122.5" y="115" width="60" height="30" as="geometry" />
        </mxCell>
        <mxCell id="lNV1BjXNFT9KpLWE9t8--118" value="" style="endArrow=none;dashed=1;html=1;rounded=0;strokeColor=#FFF2CC;fontColor=#393C56;fillColor=#ffe6cc;entryX=0.5;entryY=1;entryDx=0;entryDy=0;strokeWidth=4;fontSize=15;fontStyle=1;exitX=0.5;exitY=0;exitDx=0;exitDy=0;labelBorderColor=none;" edge="1" parent="1" source="lNV1BjXNFT9KpLWE9t8--6">
          <mxGeometry width="50" height="50" relative="1" as="geometry">
            <mxPoint x="210" y="330" as="sourcePoint" />
            <mxPoint x="290" y="310" as="targetPoint" />
          </mxGeometry>
        </mxCell>
        <mxCell id="lNV1BjXNFT9KpLWE9t8--119" value="" style="endArrow=none;dashed=1;html=1;rounded=0;strokeColor=#00ff4c;fontColor=#393C56;fillColor=#F2CC8F;entryX=0.5;entryY=1;entryDx=0;entryDy=0;strokeWidth=4;fontSize=15;fontStyle=1;exitX=0.5;exitY=1;exitDx=0;exitDy=0;labelBorderColor=none;" edge="1" parent="1" source="lNV1BjXNFT9KpLWE9t8--6" target="lNV1BjXNFT9KpLWE9t8--120">
          <mxGeometry width="50" height="50" relative="1" as="geometry">
            <mxPoint x="205" y="350" as="sourcePoint" />
            <mxPoint x="285" y="330" as="targetPoint" />
          </mxGeometry>
        </mxCell>
        <mxCell id="lNV1BjXNFT9KpLWE9t8--120" value="" style="rounded=0;whiteSpace=wrap;html=1;labelBackgroundColor=none;fontSize=15;fontStyle=1;gradientDirection=east;gradientColor=#CDA2BE;labelBorderColor=none;strokeColor=#000000;" vertex="1" parent="1">
          <mxGeometry x="190" y="340" width="30" height="10" as="geometry" />
        </mxCell>
        <mxCell id="lNV1BjXNFT9KpLWE9t8--121" value="88.32" style="text;html=1;align=center;verticalAlign=middle;resizable=0;points=[];autosize=1;strokeColor=none;fillColor=none;labelBackgroundColor=none;fontColor=#393C56;fontSize=15;fontStyle=1;labelBorderColor=none;" vertex="1" parent="1">
          <mxGeometry x="220" y="300" width="60" height="30" as="geometry" />
        </mxCell>
        <mxCell id="lNV1BjXNFT9KpLWE9t8--122" value="87.67" style="text;html=1;align=center;verticalAlign=middle;resizable=0;points=[];autosize=1;strokeColor=none;fillColor=none;labelBackgroundColor=none;fontColor=#393C56;fontSize=15;fontStyle=1;labelBorderColor=none;" vertex="1" parent="1">
          <mxGeometry x="210" y="315" width="60" height="30" as="geometry" />
        </mxCell>
        <mxCell id="lNV1BjXNFT9KpLWE9t8--123" value="" style="rounded=0;whiteSpace=wrap;html=1;labelBackgroundColor=none;fontSize=15;fontStyle=1;gradientDirection=east;gradientColor=#CDA2BE;labelBorderColor=none;strokeColor=#000000;" vertex="1" parent="1">
          <mxGeometry x="270" y="320" width="30" height="10" as="geometry" />
        </mxCell>
        <mxCell id="lNV1BjXNFT9KpLWE9t8--124" value="" style="rounded=0;whiteSpace=wrap;html=1;labelBackgroundColor=none;fontSize=15;fontStyle=1;gradientDirection=east;gradientColor=#CDA2BE;labelBorderColor=none;" vertex="1" parent="1">
          <mxGeometry x="340" y="290" width="30" height="218" as="geometry" />
        </mxCell>
        <mxCell id="lNV1BjXNFT9KpLWE9t8--125" value="" style="endArrow=none;dashed=1;html=1;rounded=0;strokeColor=#FFF2CC;fontColor=#393C56;fillColor=#ffe6cc;strokeWidth=4;fontSize=15;fontStyle=1;exitX=0.5;exitY=0;exitDx=0;exitDy=0;labelBorderColor=none;" edge="1" parent="1" source="lNV1BjXNFT9KpLWE9t8--102">
          <mxGeometry width="50" height="50" relative="1" as="geometry">
            <mxPoint x="215" y="340" as="sourcePoint" />
            <mxPoint x="290" y="310" as="targetPoint" />
          </mxGeometry>
        </mxCell>
        <mxCell id="lNV1BjXNFT9KpLWE9t8--126" value="89.34" style="text;html=1;align=center;verticalAlign=middle;resizable=0;points=[];autosize=1;strokeColor=none;fillColor=none;labelBackgroundColor=none;fontColor=#393C56;fontSize=15;fontStyle=1;labelBorderColor=none;" vertex="1" parent="1">
          <mxGeometry x="290" y="292.5" width="60" height="30" as="geometry" />
        </mxCell>
        <mxCell id="lNV1BjXNFT9KpLWE9t8--127" value="94.15" style="text;html=1;align=center;verticalAlign=middle;resizable=0;points=[];autosize=1;strokeColor=none;fillColor=none;labelBackgroundColor=none;fontColor=#393C56;fontSize=15;fontStyle=1;labelBorderColor=none;" vertex="1" parent="1">
          <mxGeometry x="360" y="272.5" width="60" height="30" as="geometry" />
        </mxCell>
        <mxCell id="lNV1BjXNFT9KpLWE9t8--128" value="" style="rounded=0;whiteSpace=wrap;html=1;labelBackgroundColor=none;fontSize=15;fontStyle=1;gradientDirection=east;gradientColor=#CDA2BE;labelBorderColor=none;" vertex="1" parent="1">
          <mxGeometry x="420" y="280" width="30" height="227.5" as="geometry" />
        </mxCell>
        <mxCell id="lNV1BjXNFT9KpLWE9t8--129" value="" style="rounded=0;whiteSpace=wrap;html=1;labelBackgroundColor=none;fontSize=15;fontStyle=1;gradientDirection=east;gradientColor=#CDA2BE;labelBorderColor=none;" vertex="1" parent="1">
          <mxGeometry x="490" y="290" width="30" height="218" as="geometry" />
        </mxCell>
        <mxCell id="lNV1BjXNFT9KpLWE9t8--130" value="" style="rounded=0;whiteSpace=wrap;html=1;labelBackgroundColor=none;fontSize=15;fontStyle=1;gradientDirection=east;gradientColor=#CDA2BE;labelBorderColor=none;" vertex="1" parent="1">
          <mxGeometry x="575" y="280" width="30" height="227.5" as="geometry" />
        </mxCell>
        <mxCell id="lNV1BjXNFT9KpLWE9t8--131" value="" style="rounded=0;whiteSpace=wrap;html=1;labelBackgroundColor=none;fontSize=15;fontStyle=1;gradientDirection=east;gradientColor=#CDA2BE;labelBorderColor=none;" vertex="1" parent="1">
          <mxGeometry x="655" y="270" width="30" height="237.5" as="geometry" />
        </mxCell>
        <mxCell id="lNV1BjXNFT9KpLWE9t8--132" value="92.03" style="text;html=1;align=center;verticalAlign=middle;resizable=0;points=[];autosize=1;strokeColor=none;fillColor=none;labelBackgroundColor=none;fontColor=#393C56;fontSize=15;fontStyle=1;labelBorderColor=none;" vertex="1" parent="1">
          <mxGeometry x="440" y="280" width="60" height="30" as="geometry" />
        </mxCell>
        <mxCell id="lNV1BjXNFT9KpLWE9t8--133" value="91.03" style="text;html=1;align=center;verticalAlign=middle;resizable=0;points=[];autosize=1;strokeColor=none;fillColor=none;labelBackgroundColor=none;fontColor=#393C56;fontSize=15;fontStyle=1;labelBorderColor=none;" vertex="1" parent="1">
          <mxGeometry x="520" y="290" width="60" height="30" as="geometry" />
        </mxCell>
        <mxCell id="lNV1BjXNFT9KpLWE9t8--134" value="93.03" style="text;html=1;align=center;verticalAlign=middle;resizable=0;points=[];autosize=1;strokeColor=none;fillColor=none;labelBackgroundColor=none;fontColor=#393C56;fontSize=15;fontStyle=1;labelBorderColor=none;" vertex="1" parent="1">
          <mxGeometry x="595" y="282.5" width="60" height="30" as="geometry" />
        </mxCell>
        <mxCell id="lNV1BjXNFT9KpLWE9t8--135" value="95.35" style="text;html=1;align=center;verticalAlign=middle;resizable=0;points=[];autosize=1;strokeColor=none;fillColor=none;labelBackgroundColor=none;fontColor=#393C56;fontSize=15;fontStyle=1;labelBorderColor=none;" vertex="1" parent="1">
          <mxGeometry x="680" y="270" width="60" height="30" as="geometry" />
        </mxCell>
        <mxCell id="lNV1BjXNFT9KpLWE9t8--136" value="" style="endArrow=none;dashed=1;html=1;rounded=0;strokeColor=#CDA2BE;fontColor=#393C56;fillColor=#F2CC8F;entryX=0.5;entryY=0;entryDx=0;entryDy=0;strokeWidth=4;fontSize=15;fontStyle=1;labelBorderColor=none;exitX=0.5;exitY=0;exitDx=0;exitDy=0;" edge="1" parent="1" source="lNV1BjXNFT9KpLWE9t8--120" target="lNV1BjXNFT9KpLWE9t8--123">
          <mxGeometry width="50" height="50" relative="1" as="geometry">
            <mxPoint x="200" y="340" as="sourcePoint" />
            <mxPoint x="280" y="320" as="targetPoint" />
          </mxGeometry>
        </mxCell>
        <mxCell id="lNV1BjXNFT9KpLWE9t8--137" value="" style="endArrow=none;dashed=1;html=1;rounded=0;strokeColor=#CDA2BE;fontColor=#393C56;fillColor=#F2CC8F;entryX=0.5;entryY=0;entryDx=0;entryDy=0;strokeWidth=4;fontSize=15;fontStyle=1;labelBorderColor=none;exitX=0.5;exitY=0;exitDx=0;exitDy=0;" edge="1" parent="1" source="lNV1BjXNFT9KpLWE9t8--124" target="lNV1BjXNFT9KpLWE9t8--123">
          <mxGeometry width="50" height="50" relative="1" as="geometry">
            <mxPoint x="215" y="350" as="sourcePoint" />
            <mxPoint x="295" y="330" as="targetPoint" />
          </mxGeometry>
        </mxCell>
        <mxCell id="lNV1BjXNFT9KpLWE9t8--138" value="" style="endArrow=none;dashed=1;html=1;rounded=0;strokeColor=#CDA2BE;fontColor=#393C56;fillColor=#F2CC8F;entryX=0.5;entryY=0;entryDx=0;entryDy=0;strokeWidth=4;fontSize=15;fontStyle=1;labelBorderColor=none;exitX=0.5;exitY=0;exitDx=0;exitDy=0;" edge="1" parent="1" source="lNV1BjXNFT9KpLWE9t8--128" target="lNV1BjXNFT9KpLWE9t8--124">
          <mxGeometry width="50" height="50" relative="1" as="geometry">
            <mxPoint x="365" y="300" as="sourcePoint" />
            <mxPoint x="295" y="330" as="targetPoint" />
          </mxGeometry>
        </mxCell>
        <mxCell id="lNV1BjXNFT9KpLWE9t8--139" value="" style="endArrow=none;dashed=1;html=1;rounded=0;strokeColor=#CDA2BE;fontColor=#393C56;fillColor=#F2CC8F;entryX=0.5;entryY=0;entryDx=0;entryDy=0;strokeWidth=4;fontSize=15;fontStyle=1;labelBorderColor=none;exitX=0.5;exitY=0;exitDx=0;exitDy=0;" edge="1" parent="1" source="lNV1BjXNFT9KpLWE9t8--129" target="lNV1BjXNFT9KpLWE9t8--128">
          <mxGeometry width="50" height="50" relative="1" as="geometry">
            <mxPoint x="445" y="290" as="sourcePoint" />
            <mxPoint x="365" y="300" as="targetPoint" />
          </mxGeometry>
        </mxCell>
        <mxCell id="lNV1BjXNFT9KpLWE9t8--140" value="" style="endArrow=none;dashed=1;html=1;rounded=0;strokeColor=#CDA2BE;fontColor=#393C56;fillColor=#F2CC8F;entryX=0.5;entryY=0;entryDx=0;entryDy=0;strokeWidth=4;fontSize=15;fontStyle=1;labelBorderColor=none;exitX=0.5;exitY=0;exitDx=0;exitDy=0;" edge="1" parent="1" source="lNV1BjXNFT9KpLWE9t8--129" target="lNV1BjXNFT9KpLWE9t8--130">
          <mxGeometry width="50" height="50" relative="1" as="geometry">
            <mxPoint x="515" y="300" as="sourcePoint" />
            <mxPoint x="445" y="290" as="targetPoint" />
          </mxGeometry>
        </mxCell>
        <mxCell id="lNV1BjXNFT9KpLWE9t8--141" value="" style="endArrow=none;dashed=1;html=1;rounded=0;strokeColor=#CDA2BE;fontColor=#393C56;fillColor=#F2CC8F;entryX=0.5;entryY=0;entryDx=0;entryDy=0;strokeWidth=4;fontSize=15;fontStyle=1;labelBorderColor=none;exitX=0.5;exitY=0;exitDx=0;exitDy=0;" edge="1" parent="1" source="lNV1BjXNFT9KpLWE9t8--131" target="lNV1BjXNFT9KpLWE9t8--130">
          <mxGeometry width="50" height="50" relative="1" as="geometry">
            <mxPoint x="515" y="300" as="sourcePoint" />
            <mxPoint x="600" y="290" as="targetPoint" />
          </mxGeometry>
        </mxCell>
        <mxCell id="lNV1BjXNFT9KpLWE9t8--142" value="" style="endArrow=none;dashed=1;html=1;rounded=0;strokeColor=#CDA2BE;fontColor=#393C56;fillColor=#F2CC8F;entryX=0.5;entryY=0;entryDx=0;entryDy=0;strokeWidth=4;fontSize=15;fontStyle=1;labelBorderColor=none;" edge="1" parent="1">
          <mxGeometry width="50" height="50" relative="1" as="geometry">
            <mxPoint x="1122.5" y="155" as="sourcePoint" />
            <mxPoint x="1067.5" y="155" as="targetPoint" />
          </mxGeometry>
        </mxCell>
        <mxCell id="lNV1BjXNFT9KpLWE9t8--143" value="竞品2" style="text;html=1;strokeColor=none;fillColor=none;align=center;verticalAlign=middle;whiteSpace=wrap;rounded=0;fontColor=#393C56;fontSize=15;fontStyle=1" vertex="1" parent="1">
          <mxGeometry x="1122.5" y="145" width="60" height="30" as="geometry" />
        </mxCell>
      </root>
    </mxGraphModel>
  </diagram>
</mxfile>
